{"title":"X-Men Days Of Future Past (2014) 1080p Blu-ray x264 DTSHD-MA-DDR","uid":12500675,"size":15567340670,"categoryP":"video","categoryS":"hd___movies","magnet":"?xt=urn:btih:4e0ba23c6166f109eb5465979dfd3a0a70d012f4&amp;dn=X-Men+Days+Of+Future+Past+%282014%29+1080p+Blu-ray+x264+DTSHD-MA-DDR&amp;tr=udp%3A%2F%2Ftracker.leechers-paradise.org%3A6969&amp;tr=udp%3A%2F%2Fzer0day.ch%3A1337&amp;tr=udp%3A%2F%2Fopen.demonii.com%3A1337&amp;tr=udp%3A%2F%2Ftracker.coppersurfer.tk%3A6969&amp;tr=udp%3A%2F%2Fexodus.desync.com%3A6969","seeders":2,"leechers":0,"uploader":"SaM","files":4,"time":1443357929,"description":"1080p Blu-ray Rip x264\r\n\r\nEnglish Untouched DTSHD-MA 7.1\r\n\r\nHindi / Tamil / Telugu / Urdu 448 Kbps AC3 5.1\r\n\r\n\r\n\r\nEnglish &amp; English Hearing Impaired Subtitle\r\nFrench &amp; French Hearing Impaired Subtitle\r\nHindi &amp; Hindi Hearing Impaired Subtitle \r\n \nhttp://extraimago.com/image/dNq \nhttp://extraimago.com/image/dNy \nhttp://extraimago.com/image/dNL \nhttp://extraimago.com/image/dNQ \nhttp://extraimago.com/image/dNR \nhttp://extraimago.com/image/dNm \nhttp://extraimago.com/image/dNi \nhttp://extraimago.com/image/dNl \nhttp://extraimago.com/image/dNI \nhttp://extraimago.com/image/dNd \nhttp://extraimago.com/image/dNh \nhttp://extraimago.com/image/dNb\r\n\r\nSpecs:\r\nSource: BD50\r\n\r\nFormat : Matroska\r\nFile size : 14.4 GiB\r\nDuration : 2h 11mn\r\nOverall bit rate mode : Variable\r\nOverall bit rate : 15.7 Mbps\r\n\r\nVideo\r\nFormat : AVC\r\nFormat profile :   \r\nNominal bit rate : 8 368 Kbps\r\nWidth : 1 920 pixels\r\nHeight : 800 pixels\r\nDisplay aspect ratio : 2.40:1\r\nFrame rate mode : Constant\r\nFrame rate : 23.976 fps\r\nColor space : YUV\r\nChroma subsampling : 4:2:0\r\nBit depth : 8 bits\r\nScan type : Progressive\r\n\r\nAudio #1\r\nID : 2\r\nFormat : DTS\r\nFormat/Info : Digital Theater Systems\r\nFormat profile : MA / Core\r\nMode : 16\r\nFormat settings, Endianness : Big\r\nCodec ID : A_DTS\r\nDuration : 2h 11mn\r\nBit rate mode : Variable\r\nBit rate : Unknown / 1 509 Kbps\r\nChannel(s) : 8 channels / 6 channels\r\nChannel positions : Front: L C R, Side: L R, Back: L R, LFE / Front: L C R, Side: L R, LFE\r\nSampling rate : 48.0 KHz\r\nBit depth : 24 bits\r\nCompression mode : Lossless / Lossy\r\nLanguage : English\r\nDefault : Yes\r\nForced : No\r\n\r\nAudio #2\r\nID : 3\r\nFormat : AC-3\r\nFormat/Info : Audio Coding 3\r\nMode extension : CM (complete main)\r\nFormat settings, Endianness : Big\r\nCodec ID : A_AC3\r\nDuration : 2h 11mn\r\nBit rate mode : Constant\r\nBit rate : 448 Kbps\r\nChannel(s) : 6 channels\r\nChannel positions : Front: L C R, Side: L R, LFE\r\nSampling rate : 48.0 KHz\r\nBit depth : 16 bits\r\nCompression mode : Lossy\r\nStream size : 422 MiB (3%)\r\nLanguage : Hindi\r\nDefault : No\r\nForced : No\r\n\r\nAudio #3\r\nID : 4\r\nFormat : AC-3\r\nFormat/Info : Audio Coding 3\r\nMode extension : CM (complete main)\r\nFormat settings, Endianness : Big\r\nCodec ID : A_AC3\r\nDuration : 2h 11mn\r\nBit rate mode : Constant\r\nBit rate : 448 Kbps\r\nChannel(s) : 6 channels\r\nChannel positions : Front: L C R, Side: L R, LFE\r\nSampling rate : 48.0 KHz\r\nBit depth : 16 bits\r\nCompression mode : Lossy\r\nStream size : 422 MiB (3%)\r\nLanguage : Tamil\r\nDefault : No\r\nForced : No\r\n\r\nAudio #4\r\nID : 5\r\nFormat : AC-3\r\nFormat/Info : Audio Coding 3\r\nMode extension : CM (complete main)\r\nFormat settings, Endianness : Big\r\nCodec ID : A_AC3\r\nDuration : 2h 11mn\r\nBit rate mode : Constant\r\nBit rate : 448 Kbps\r\nChannel(s) : 6 channels\r\nChannel positions : Front: L C R, Side: L R, LFE\r\nSampling rate : 48.0 KHz\r\nBit depth : 16 bits\r\nCompression mode : Lossy\r\nStream size : 422 MiB (3%)\r\nLanguage : Telugu\r\nDefault : No\r\nForced : No\r\n\r\nAudio #5\r\nID : 6\r\nFormat : AC-3\r\nFormat/Info : Audio Coding 3\r\nMode extension : CM (complete main)\r\nFormat settings, Endianness : Big\r\nCodec ID : A_AC3\r\nDuration : 2h 11mn\r\nBit rate mode : Constant\r\nBit rate : 448 Kbps\r\nChannel(s) : 6 channels\r\nChannel positions : Front: L C R, Side: L R, LFE\r\nSampling rate : 48.0 KHz\r\nBit depth : 16 bits\r\nCompression mode : Lossy\r\nStream size : 422 MiB (3%)\r\nLanguage : Urdu\r\nDefault : No\r\nForced : No\r\n\r\nSAMPLE Included","torrent":{"xt":"urn:btih:4e0ba23c6166f109eb5465979dfd3a0a70d012f4","amp;dn":"X-Men+Days+Of+Future+Past+%282014%29+1080p+Blu-ray+x264+DTSHD-MA-DDR","amp;tr":["udp%3A%2F%2Ftracker.leechers-paradise.org%3A6969","udp%3A%2F%2Fzer0day.ch%3A1337","udp%3A%2F%2Fopen.demonii.com%3A1337","udp%3A%2F%2Ftracker.coppersurfer.tk%3A6969","udp%3A%2F%2Fexodus.desync.com%3A6969"],"infoHash":"4e0ba23c6166f109eb5465979dfd3a0a70d012f4","infoHashBuffer":{"type":"Buffer","data":[78,11,162,60,97,102,241,9,235,84,101,151,157,253,58,10,112,208,18,244]},"announce":[],"urlList":[]}}